<?xml version="1.0" encoding="UTF-8" standalone="no"?>
<svg width="30px" height="34px" viewBox="0 0 30 34" version="1.1" xmlns="http://www.w3.org/2000/svg" xmlns:xlink="http://www.w3.org/1999/xlink" xmlns:sketch="http://www.bohemiancoding.com/sketch/ns">
    <!-- Generator: Sketch 3.2 (9961) - http://www.bohemiancoding.com/sketch -->
    <title>Shape</title>
    <desc>Created with Sketch.</desc>
    <defs></defs>
    <g id="Page-1" stroke="none" stroke-width="1" fill="none" fill-rule="evenodd" sketch:type="MSPage">
        <g id="Android_L_校园公告" sketch:type="MSArtboardGroup" transform="translate(-41.000000, -79.000000)" fill="#4A4A4A">
            <g id="actionbar-+-Statusbar-+-arrow462-5" sketch:type="MSLayerGroup">
                <path d="M70.329,92.8030476 C69.8875,92.2857143 69.314,92.0271746 68.60775,92.0271746 L54.269,92.0271746 L60.23675,85.9644444 C60.75275,85.4405079 61.01075,84.8126984 61.01075,84.0815238 C61.01075,83.3506032 60.753,82.7227937 60.23675,82.1986032 L58.70925,80.6674286 C58.1935,80.1434921 57.58225,79.8811429 56.87625,79.8811429 C56.1565,79.8811429 55.5385,80.1432381 55.02275,80.6674286 L41.763,94.1170794 C41.2605,94.6549841 41.00925,95.2827937 41.00925,96 C41.00925,96.7311746 41.2605,97.351873 41.763,97.8620952 L55.02275,111.353143 C55.55225,111.863619 56.17,112.119111 56.87625,112.119111 C57.59575,112.119111 58.20675,111.863619 58.70925,111.353143 L60.23675,109.780825 C60.75275,109.284317 61.01075,108.663619 61.01075,107.91873 C61.01075,107.173587 60.753,106.552635 60.23675,106.056127 L54.269,99.9728254 L68.60775,99.9728254 C69.314,99.9728254 69.8875,99.7142857 70.329,99.1969524 C70.77025,98.679619 70.99075,98.055619 70.99075,97.3244444 L70.99075,94.6758095 C70.991,93.9446349 70.77025,93.320381 70.329,92.8030476 L70.329,92.8030476 Z" id="Shape" sketch:type="MSShapeGroup"></path>
            </g>
        </g>
    </g>
</svg>