<?xml version="1.0" encoding="UTF-8" standalone="no"?>
<svg width="30px" height="30px" viewBox="0 0 30 30" version="1.1" xmlns="http://www.w3.org/2000/svg" xmlns:xlink="http://www.w3.org/1999/xlink" xmlns:sketch="http://www.bohemiancoding.com/sketch/ns">
    <!-- Generator: Sketch 3.2 (9961) - http://www.bohemiancoding.com/sketch -->
    <title>share 2</title>
    <desc>Created with Sketch.</desc>
    <defs></defs>
    <g id="Page-1" stroke="none" stroke-width="1" fill="none" fill-rule="evenodd" sketch:type="MSPage">
        <g id="Android_L_校园公告" sketch:type="MSArtboardGroup" transform="translate(-640.000000, -88.000000)" fill="#34495E">
            <g id="actionbar-+-Statusbar-+-arrow462-5" sketch:type="MSLayerGroup">
                <path d="M649.532773,98.954015 C648.520827,97.9764255 647.143149,97.375 645.625,97.375 C642.518398,97.375 640,99.8933981 640,103 C640,106.106602 642.518398,108.625 645.625,108.625 C647.143149,108.625 648.520827,108.023574 649.532773,107.045985 L649.532773,107.045985 L660.626121,113.208957 C660.625375,113.243381 660.625,113.277897 660.625,113.3125 C660.625,115.901335 662.723665,118 665.3125,118 C667.901335,118 670,115.901335 670,113.3125 C670,110.723665 667.901335,108.625 665.3125,108.625 C663.945544,108.625 662.715249,109.210118 661.85841,110.143561 L651.125812,104.181007 C651.207178,103.800193 651.25,103.405097 651.25,103 C651.25,102.594903 651.207178,102.199807 651.125812,101.818993 L661.85841,95.8564388 C662.715249,96.7898816 663.945544,97.375 665.3125,97.375 C667.901335,97.375 670,95.2763349 670,92.6875 C670,90.0986651 667.901335,88 665.3125,88 C662.723665,88 660.625,90.0986651 660.625,92.6875 C660.625,92.7221032 660.625375,92.7566189 660.626121,92.7910431 L649.532773,98.954015 Z" id="share-2" sketch:type="MSShapeGroup"></path>
            </g>
        </g>
    </g>
</svg>